<svg width="1921" height="980" viewBox="0 0 1921 980" fill="none" xmlns="http://www.w3.org/2000/svg">
<mask id="path-1-inside-1_891_91833" fill="white">
<path d="M1941.52 979.626C1941.52 851.047 1916.19 723.727 1866.99 604.936C1817.78 486.144 1745.66 378.208 1654.74 287.289C1563.82 196.37 1455.89 124.249 1337.1 75.0441C1218.3 25.8391 1090.98 0.513666 962.405 0.513672C833.826 0.513677 706.506 25.8392 587.715 75.0442C468.924 124.249 360.987 196.37 270.068 287.289C179.149 378.208 107.028 486.145 57.8234 604.936C8.61843 723.727 -16.707 851.047 -16.707 979.626L962.405 979.626H1941.52Z"/>
</mask>
<path d="M1941.52 979.626C1941.52 851.047 1916.19 723.727 1866.99 604.936C1817.78 486.144 1745.66 378.208 1654.74 287.289C1563.82 196.37 1455.89 124.249 1337.1 75.0441C1218.3 25.8391 1090.98 0.513666 962.405 0.513672C833.826 0.513677 706.506 25.8392 587.715 75.0442C468.924 124.249 360.987 196.37 270.068 287.289C179.149 378.208 107.028 486.145 57.8234 604.936C8.61843 723.727 -16.707 851.047 -16.707 979.626L962.405 979.626H1941.52Z" stroke="url(#paint0_linear_891_91833)" stroke-width="2" mask="url(#path-1-inside-1_891_91833)"/>
<defs>
<linearGradient id="paint0_linear_891_91833" x1="962.405" y1="-128.78" x2="962.405" y2="907.343" gradientUnits="userSpaceOnUse">
<stop stop-color="white"/>
<stop offset="1" stop-color="white" stop-opacity="0"/>
</linearGradient>
</defs>
</svg>
